<svg xmlns="http://www.w3.org/2000/svg" aria-hidden="true" style="position:absolute;width:0;height:0;overflow:hidden"><defs><symbol id="icon-fb" viewBox="0 0 32 32"><path fill="#1877f2" d="M32 16c0-8.836-7.163-16-16-16S0 7.163 0 16c0 7.986 5.851 14.605 13.5 15.806V20.625H9.437V16H13.5v-3.525c0-4.01 2.389-6.225 6.043-6.225 1.751 0 3.582.313 3.582.313v3.938h-2.018c-1.988 0-2.607 1.233-2.607 2.499v3.001h4.437l-.709 4.625H18.5v11.181c7.649-1.2 13.5-7.819 13.5-15.806z" style="fill:var(--color1, #1877f2)"/><path fill="#fff" d="M22.228 20.625 22.937 16H18.5v-3.001c0-1.265.62-2.499 2.607-2.499h2.018V6.562s-1.831-.313-3.582-.313c-3.655 0-6.043 2.215-6.043 6.225v3.525H9.437v4.625H13.5v11.181c.827.13 1.663.195 2.5.194s1.673-.065 2.5-.194V20.624h3.728z" style="fill:var(--color2, #fff)"/></symbol><symbol id="icon-insta" viewBox="0 0 32 32"><path d="M24.5 0h-17A7.5 7.5 0 0 0 0 7.5v17A7.5 7.5 0 0 0 7.5 32h17a7.5 7.5 0 0 0 7.5-7.5v-17A7.5 7.5 0 0 0 24.5 0z" style="fill:var(--color3, #000)"/><path d="M24.5 0h-17A7.5 7.5 0 0 0 0 7.5v17A7.5 7.5 0 0 0 7.5 32h17a7.5 7.5 0 0 0 7.5-7.5v-17A7.5 7.5 0 0 0 24.5 0z" style="fill:var(--color3, #000)"/><path fill="#fff" d="M16.001 3.5c-3.395 0-3.821.015-5.154.075-1.331.061-2.239.272-3.034.581-.822.319-1.52.746-2.214 1.441S4.476 6.989 4.156 7.811c-.31.795-.521 1.704-.581 3.034-.06 1.333-.075 1.76-.075 5.155s.015 3.82.075 5.153c.061 1.331.272 2.239.581 3.034.319.822.747 1.52 1.442 2.214s1.392 1.124 2.214 1.443c.795.309 1.704.52 3.034.581 1.333.061 1.759.075 5.154.075s3.82-.015 5.153-.075c1.331-.061 2.24-.272 3.035-.581a6.108 6.108 0 0 0 2.213-1.443 6.15 6.15 0 0 0 1.443-2.214c.307-.795.518-1.704.581-3.034.06-1.333.075-1.758.075-5.153s-.016-3.821-.075-5.154c-.063-1.331-.273-2.239-.581-3.034-.32-.822-.747-1.52-1.443-2.215s-1.391-1.122-2.213-1.441c-.797-.309-1.706-.52-3.037-.581-1.333-.061-1.758-.075-5.154-.075h.004zM14.88 5.753h1.121c3.338 0 3.733.012 5.051.072 1.219.056 1.88.259 2.321.431.583.226.999.497 1.437.935s.708.854.935 1.438c.171.44.375 1.101.43 2.32.06 1.318.073 1.713.073 5.049s-.013 3.732-.073 5.05c-.056 1.219-.259 1.88-.43 2.32-.227.583-.498.999-.935 1.436s-.853.708-1.437.935c-.44.172-1.102.375-2.321.431-1.318.06-1.713.073-5.051.073s-3.733-.013-5.051-.073c-1.219-.056-1.88-.26-2.321-.431-.583-.227-1-.497-1.438-.935s-.708-.853-.935-1.437c-.171-.44-.375-1.102-.431-2.32-.06-1.318-.072-1.713-.072-5.052s.012-3.732.072-5.05c.056-1.219.259-1.88.431-2.321.227-.583.498-1 .936-1.438s.854-.708 1.438-.935c.441-.172 1.102-.375 2.321-.431 1.153-.052 1.6-.068 3.93-.07v.003zm7.794 2.075a1.5 1.5 0 1 0 0 3.001 1.5 1.5 0 0 0 0-3.002zm-6.673 1.753a6.42 6.42 0 1 0 .002 12.838A6.42 6.42 0 0 0 16 9.581zm0 2.252a4.167 4.167 0 1 1 0 8.334 4.167 4.167 0 0 1 0-8.334z" style="fill:var(--color2, #fff)"/></symbol><symbol id="icon-x" viewBox="0 0 32 32"><path fill="#1f2937" d="M32 16c0 8.837-7.163 16-16 16S0 24.837 0 16 7.163 0 16 0s16 7.163 16 16z" style="fill:var(--color4, #1f2937)"/><path fill="#f8fafc" d="M26.449 24.689 19.38 14.476l6.921-7.003c.243-.252.368-.582.348-.918s-.183-.652-.453-.878-.628-.346-.993-.331c-.366.014-.71.16-.96.407l-6.405 6.486-4.368-6.312c-.126-.182-.299-.331-.504-.435s-.435-.158-.669-.158H6.735c-.249 0-.494.062-.708.179s-.391.284-.51.485A1.198 1.198 0 0 0 5.562 7.3l7.069 10.213-6.925 7.003c-.125.124-.223.27-.287.428a1.177 1.177 0 0 0 .045.986c.078.154.188.291.324.405.136.114.296.202.469.258s.357.081.541.072.364-.052.529-.125c.166-.073.314-.177.436-.303l6.41-6.486 4.368 6.312c.126.182.299.331.504.435s.435.158.669.158h5.562c.249 0 .494-.062.708-.179s.391-.284.511-.485.179-.428.171-.657-.083-.452-.217-.645zm-5.971-.592L9.269 7.892h2.266l11.21 16.205h-2.266z" style="fill:var(--color5, #f8fafc)"/></symbol></defs></svg>