<svg xmlns="http://www.w3.org/2000/svg" aria-hidden="true" style="position:absolute;width:0;height:0;overflow:hidden">
  <defs>
    <symbol id="icon-viber-logo" viewBox="0 0 32 32">
      <path d="M27.751 3.119C26.957 2.388 23.745.056 16.582.025c0 0-8.444-.506-12.556 3.269C1.738 5.582.932 8.938.845 13.094S.651 25.038 8.157 27.15h.006l-.006 3.225s-.05 1.306.813 1.569c1.037.325 1.65-.669 2.644-1.738a97.604 97.604 0 0 0 1.863-2.106c5.137.431 9.081-.556 9.531-.7 1.038-.338 6.906-1.088 7.856-8.875.988-8.038-.475-13.113-3.112-15.406zm.869 14.819c-.806 6.5-5.563 6.913-6.438 7.194-.375.119-3.844.981-8.2.7 0 0-3.25 3.919-4.262 4.938-.331.331-.694.3-.688-.356 0-.431.025-5.356.025-5.356-.006 0-.006 0 0 0-6.362-1.763-5.987-8.394-5.919-11.863S3.863 6.882 5.8 4.97c3.481-3.156 10.65-2.688 10.65-2.688 6.056.025 8.956 1.85 9.631 2.463 2.231 1.912 3.369 6.487 2.538 13.194zm-8.688-5.05c.025.538-.781.575-.806.038-.069-1.375-.713-2.044-2.038-2.119-.537-.031-.487-.837.044-.806 1.744.094 2.713 1.094 2.8 2.887zm1.269.706c.062-2.65-1.594-4.725-4.738-4.956-.531-.037-.475-.844.056-.806 3.625.263 5.556 2.756 5.487 5.781-.006.538-.819.513-.806-.019zm2.938.837c.006.538-.806.544-.806.006-.037-5.094-3.431-7.869-7.55-7.9-.531-.006-.531-.806 0-.806 4.606.031 8.313 3.213 8.356 8.7zm-.707 6.132v.013c-.675 1.187-1.937 2.5-3.237 2.081l-.013-.019c-1.319-.369-4.425-1.969-6.387-3.531a16.31 16.31 0 0 1-2.65-2.65 20.218 20.218 0 0 1-1.925-2.912c-1.331-2.406-1.625-3.481-1.625-3.481-.419-1.3.887-2.562 2.081-3.237h.012c.575-.3 1.125-.2 1.494.244 0 0 .775.925 1.106 1.381.313.425.731 1.106.95 1.487.381.681.144 1.375-.231 1.663l-.75.6c-.381.306-.331.875-.331.875s1.112 4.206 5.269 5.269c0 0 .569.05.875-.331l.6-.75c.287-.375.981-.612 1.662-.231.919.519 2.088 1.325 2.863 2.056.437.356.537.9.237 1.475z"/>
    </symbol>
    <symbol id="icon-facebook-logo" viewBox="0 0 32 32">
      <path d="M16 0a16.001 16.001 0 0 1 2.168 31.853V20.346h4.139l.651-4.227h-4.792v-2.312c0-1.755.571-3.312 2.205-3.312h2.627V6.799c-.461-.064-1.435-.2-3.28-.2-3.851 0-6.107 2.045-6.107 6.701v2.813H9.648v4.227h3.957v11.477A16.001 16.001 0 0 1 16-.001z"/>
    </symbol>
    <symbol id="icon-twitter-logo" viewBox="0 0 32 32">
      <path stroke-linecap="round" stroke-linejoin="round" stroke-width=".762" d="M9.144 21.486a15.547 15.547 0 0 1-5.509 2.766 1.143 1.143 0 0 0 0 2.148c15.817 6.491 25.874-3.543 24.343-14.674l2.56-5.303h-2.971c-3.703-4.549-13.531-4.32-11.909 5.371 0 0-5.257.937-11.977-5.669a1.136 1.136 0 0 0-1.718.129c-.13.175-.208.384-.224.602a12.612 12.612 0 0 0 7.406 14.628z"/>
    </symbol>
    <symbol id="icon-google-logo" viewBox="0 0 32 32">
      <path fill="#ea4335" d="M15.095 15.295 2.399 28.596a3.452 3.452 0 0 0 2.021 2.256 3.427 3.427 0 0 0 3.021-.213l14.285-8.136-6.632-7.209z" style="fill:var(--color1, #ea4335)"/>
      <path fill="#fbbc04" d="m27.933 13.034-6.177-3.538-6.953 6.102 6.982 6.887 6.13-3.5a3.355 3.355 0 0 0 1.8-2.975 3.364 3.364 0 0 0-1.8-2.975h.019z" style="fill:var(--color2, #fbbc04)"/>
      <path fill="#4285f4" d="M2.399 3.356a3.278 3.278 0 0 0-.114.87v23.499c.001.294.039.586.114.87L15.53 15.634 2.399 3.355z" style="fill:var(--color3, #4285f4)"/>
      <path fill="#34a853" d="m15.19 15.976 6.566-6.48L7.49 1.322A3.516 3.516 0 0 0 5.721.84a3.442 3.442 0 0 0-3.32 2.507l12.79 12.629z" style="fill:var(--color4, #34a853)"/>
    </symbol>
     <symbol id="icon-burger-menu" viewBox="0 0 24 24">
      <path fill="none" stroke="currentColor" stroke-linecap="round" stroke-linejoin="round" stroke-width="2.5" d="M3 6h18M3 12h18M3 18h18"/>
    </symbol>
    <symbol id="icon-close-btn" viewBox="0 0 20 20">
	    <path fill="currentColor" d="m4.3 2.9l12.8 12.8l-1.4 1.4L2.9 4.3z" />
	    <path fill="currentColor" d="M17.1 4.3L4.3 17.1l-1.4-1.4L15.7 2.9z" />
    </symbol>
    <symbol id="icon-chevron-left" viewBox="0 0 32 32">
      <path stroke-linecap="round" stroke-linejoin="round" stroke-width="3.2" d="m20 24-8-8 8-8"/>
    </symbol>

  </defs>
</svg>
